<?xml version="1.0" encoding="utf-8"?>
<!-- Generator: Adobe Illustrator 21.0.0, SVG Export Plug-In . SVG Version: 6.00 Build 0)  -->
<svg version="1.1" id="Layer_1" xmlns="http://www.w3.org/2000/svg" xmlns:xlink="http://www.w3.org/1999/xlink" x="0px" y="0px"
	 viewBox="0 0 75.5 26.4" style="enable-background:new 0 0 75.5 26.4;" xml:space="preserve">
<style type="text/css">
	.st0{fill:#DF1E26;}
</style>
<g>
	<path class="st0" d="M1.8,15.2c0,0,0.1,0.1,0.1,0.1c0.4,0.5,1.1,0.8,1.7,1c1.1,0.3,2.3-0.1,3.2-0.7c3.1-1.9,12-9.5,14.6-7
		c2.7,2.6,0.5,6.6-0.7,8.1s-3.7,4.3-6.5,6c-2.8,1.7-4.1,2-4.5,1.6c-0.5-0.5-0.2-1.4,1-2.7c1.1-1.2,4.6-3.6,2.5-5S9,17.7,8,19.2
		c-1.4,2.1-2,6.2,1.7,6.2c4.2,0,10.7-5.8,12.2-7.5c1.5-1.7,4.1-4.9,4.2-9.4c0.1-4.7-3.3-7.5-8-7.6c-1.2,0-2.3,0.2-3.5,0.5
		c-1.3,0.4-2.6,0.9-3.9,1.5C9.5,3.5,8.3,4.2,7.1,5.1C5.9,5.9,4.8,6.8,3.8,7.8C3,8.7,2.2,9.6,1.7,10.7c-0.4,0.9-0.7,1.9-0.5,2.9
		C1.2,14.2,1.4,14.8,1.8,15.2z"/>
	<path class="st0" d="M35.1,9.4c-1.9,0-4,1.2-4,1.2l0.7,1.7c0.5-0.3,1.9-0.8,2.9-0.8c2.1,0,1.6,2.1,1.6,2.1h-2.2
		c-2.5,0-3.9,2-3.9,3.6c0,1.6,1.2,3.9,4.3,3.9c3.1,0,4.5-1.7,4.5-1.7s0-3.9,0-6.3S37,9.4,35.1,9.4z M36.4,18.7c0,0-0.3,0.3-1.4,0.3
		s-1.6-0.8-1.6-1.9c0-1.4,0.9-1.7,3-1.7V18.7z"/>
	<polygon class="st0" points="44.1,9.6 44.1,20.8 41.4,20.8 41.4,10.1 	"/>
	<path class="st0" d="M46.4,20.8v-9.2c0,0,2.9-3.2,6.7-1.8l-0.8,1.7c0,0-2-0.4-3.1,0.6v8.6H46.4z"/>
	<path class="st0" d="M53.9,7l2.9-0.5v3.1h1.8v2.1h-1.9v6c0,0-0.2,1.3,1.9,1.3v1.7c0,0-4.7,0.9-4.7-3.1C53.9,14,53.9,7,53.9,7z"/>
	<path class="st0" d="M67.8,18.1c0,0-1.3,1-3,1c-1.7,0-2.4-1.1-2.4-3.5l6.1,0c0,0,0.5-6.1-4.2-6.1c-4.7,0-4.7,5.7-4.7,5.9
		c0,0.2,0,5.7,4.8,5.7c2.3,0,4.2-1.3,4.2-1.3L67.8,18.1z M64.2,11.6c1.6,0,1.4,2.2,1.4,2.2h-3C62.6,13.8,62.6,11.6,64.2,11.6z"/>
	<path class="st0" d="M73.1,6.6v11.2c0,0-0.2,1.3,1.8,1.3v1.7c0,0-4.6,1-4.6-3.2s0-10.6,0-10.6L73.1,6.6z"/>
	<circle class="st0" cx="42.7" cy="6.9" r="1.8"/>
</g>
</svg>
