<?xml version="1.0" encoding="utf-8"?>
<!-- Generator: Adobe Illustrator 23.0.1, SVG Export Plug-In . SVG Version: 6.00 Build 0)  -->
<svg version="1.1" id="Capa_1" xmlns="http://www.w3.org/2000/svg" xmlns:xlink="http://www.w3.org/1999/xlink" x="0px" y="0px"
	 viewBox="0 0 512 512" style="enable-background:new 0 0 512 512;" xml:space="preserve">
<style type="text/css">
	.st0{fill:#23DBBC;}
	.st1{fill:#E8916F;}
	.st2{fill:#EBAD88;}
	.st3{fill:#21CCAF;}
	.st4{fill:#FFF7E6;}
	.st5{fill:#7D4D3D;}
	.st6{fill:#704537;}
	.st7{fill:#FFD740;}
	.st8{fill:#FFCA28;}
	.st9{fill:#E4EAF8;}
	.st10{fill:#D8DCE5;}
	.st11{fill:#C3C8D1;}
</style>
<g>
	<path class="st0" d="M470.2,178.1H171.4V119c0-19.5,15.8-35.3,35.3-35.3h228.3c19.5,0,35.3,15.8,35.3,35.3L470.2,178.1z"/>
	<path class="st1" d="M291.9,290.5h57.8v96.4h-57.8V290.5z"/>
	<path class="st2" d="M216.7,202.3V125c0-54.2,44-98.2,98.2-98.2h11.8c54.2,0,98.2,44,98.2,98.2v77.3c0,57.5-46.6,104-104,104h-0.1
		C263.2,306.4,216.7,259.8,216.7,202.3z"/>
	<path class="st1" d="M326.7,26.8h-11.8c-2.9,0-5.7,0.1-8.5,0.4C356.5,31.5,396,73.6,396,125v77.3c0,52.6-39,96-89.7,103
		c4.7,0.7,9.5,1,14.4,1h0.1c57.5,0,104-46.6,104-104V125C424.9,70.8,380.9,26.8,326.7,26.8L326.7,26.8z"/>
	<path class="st0" d="M264.9,346.4h111.8c49,0,88.7,39.7,88.7,88.7V491H176.2V435C176.2,386.1,215.9,346.4,264.9,346.4z"/>
	<path class="st3" d="M376.7,346.4h-28.9c49,0,88.7,39.7,88.7,88.7V491h28.9V435C465.4,386.1,425.7,346.4,376.7,346.4z"/>
	<path class="st4" d="M290.8,329.5l-18.7,15.6c-0.8,0.7-0.9,2-0.2,2.8l26.8,29.7c0.9,1,2.4,0.8,3.1-0.3l19.1-30.9L293,329.3
		C292.3,328.9,291.4,328.9,290.8,329.5L290.8,329.5z"/>
	<path class="st4" d="M350.8,329.5l18.7,15.6c0.8,0.7,0.9,2,0.2,2.8l-26.8,29.7c-0.9,1-2.4,0.8-3.1-0.3l-19.1-30.9l27.7-17.1
		C349.2,328.9,350.1,328.9,350.8,329.5L350.8,329.5z"/>
	<path class="st5" d="M438.6,157.3c-13.7,2.5-13.7,27.7-13.7,27.7s-10,4.1-13.6-1.8c-3.6-5.9-6.7-44.2-8.1-60.9
		c-1.4-16.7-12.6-39.3-38.9-29.1c-26.4,10.2-60.7,10.2-87.1,0c-26.4-10.2-37.5,12.4-38.9,29.1c-1.4,16.7-4.4,55-8.1,60.9
		c-3.6,5.9-13.6,1.8-13.6,1.8s-0.1-25.2-13.7-27.7c0,0-11.8-30.4-5.2-64.3c8-41.5,31-81.1,123.1-81.1s115.1,39.6,123.1,81.1
		C450.4,126.8,438.6,157.3,438.6,157.3L438.6,157.3z"/>
	<path class="st6" d="M443.9,92.9c-8-41.5-31-81.1-123.1-81.1c-5,0-9.8,0.1-14.5,0.4c80.1,4,101.1,41.5,108.6,80.7
		c6.5,33.9-5.2,64.3-5.2,64.3c-1.1,0.2-2.1,0.6-3.1,1.1c1.4,11.7,3,22,4.7,24.8c3.6,5.9,13.6,1.8,13.6,1.8s0.1-25.2,13.7-27.7
		C438.6,157.3,450.4,126.8,443.9,92.9z"/>
	<path class="st7" d="M205.9,242.8h-25.5c-11.9,0-21.6-9.7-21.6-21.6V167c0-11.9,9.7-21.6,21.6-21.6h25.5c5.9,0,10.8,4.8,10.8,10.8
		V232C216.7,237.9,211.8,242.8,205.9,242.8z"/>
	<path class="st8" d="M205.9,145.4h-25.5c-0.7,0-1.4,0-2,0.1c5.3,0.7,9.4,5.2,9.4,10.7V232c0,5.5-4.1,10-9.4,10.7
		c0.7,0.1,1.3,0.1,2,0.1h25.5c5.9,0,10.8-4.8,10.8-10.8v-75.8C216.7,150.3,211.8,145.4,205.9,145.4z"/>
	<path class="st7" d="M435.7,242.8h25.5c11.9,0,21.6-9.7,21.6-21.6V167c0-11.9-9.7-21.6-21.6-21.6h-25.5c-5.9,0-10.8,4.8-10.8,10.8
		V232C424.9,237.9,429.7,242.8,435.7,242.8L435.7,242.8z"/>
	<path class="st8" d="M461.2,145.4h-25.5c-0.5,0-0.9,0-1.4,0.1c10.9,1,19.5,10.3,19.5,21.5v54.3c0,11.2-8.6,20.4-19.5,21.5
		c0.5,0.1,0.9,0.1,1.4,0.1h25.5c11.9,0,21.6-9.7,21.6-21.6V167C482.7,155.1,473,145.4,461.2,145.4L461.2,145.4z"/>
	<circle class="st4" cx="320.8" cy="424.9" r="15.4"/>
	<path d="M342.2,250.3c-1.1-3.8-5.1-6.1-8.9-5c-7.5,2.1-17.5,2.1-25,0c-3.8-1.1-7.8,1.2-8.9,5c-1.1,3.8,1.2,7.8,5,8.9
		c5.1,1.4,10.7,2.1,16.4,2.1s11.3-0.7,16.4-2.1C341,258.2,343.3,254.2,342.2,250.3L342.2,250.3z"/>
	<path d="M413.4,483.7h-230V435c0-16,4.6-31.5,13.4-44.8c2.2-3.3,1.3-7.8-2-10c-3.3-2.2-7.8-1.3-10,2
		c-10.4,15.7-15.8,33.9-15.8,52.8V491c0,4,3.2,7.2,7.2,7.2h237.2c4,0,7.2-3.2,7.2-7.2C420.6,487,417.4,483.7,413.4,483.7z"/>
	<path d="M477.4,143.2V119c0-18.6-12.2-34.9-29.6-40.5c-4.4-15.6-10.9-27.9-20.1-38.2c-2.7-3-7.2-3.3-10.2-0.6
		c-3,2.7-3.3,7.2-0.6,10.2c9.8,11,16.1,25.2,19.8,44.4c3.2,16.6,1.8,32.3-0.5,43.9h-0.6c-9.9,0-18,8.1-18,18v22.9
		c-0.1,0-0.2,0-0.3,0c-3.1-7.8-6.5-53-6.9-57.4c-1-11.5-6.2-26.5-18-33.8c-6-3.8-16.2-7-30.8-1.4c-24.9,9.6-57,9.6-81.8,0
		c-14.6-5.6-24.8-2.4-30.8,1.4c-11.8,7.4-17,22.3-18,33.8c-0.6,6.2-3.9,49.6-6.9,57.4c-0.1,0-0.2,0-0.3,0v-22.9c0-9.9-8.1-18-18-18
		h-0.6c-2.3-11.6-3.7-27.3-0.5-43.9c0.5-2.6,1.1-5.2,1.7-7.8c0.1-0.2,0.1-0.5,0.2-0.8c8.7-34.2,31.5-66.7,114.1-66.7
		c30.8,0,55.7,4.6,73.8,13.8c3.6,1.8,7.9,0.4,9.7-3.2c1.8-3.6,0.4-7.9-3.2-9.7C380.6,9.6,354.4,4.6,320.8,4.6
		c-44,0-76,8.7-97.7,26.6c-14.1,11.6-23.6,26.8-29.4,47.2c-17.4,5.6-29.6,21.9-29.6,40.5v24.3c-7.6,5.2-12.5,13.9-12.5,23.7v54.3
		c0,15.9,12.9,28.8,28.8,28.8h25.5c4.7,0,9-1.8,12.2-4.8c12.2,29.1,36.5,52,66.6,62.3v17.6l-16.7,13.9h-3c-20.8,0-40.7,6.6-57.3,19
		c-3.2,2.4-3.9,6.9-1.5,10.1c2.4,3.2,6.9,3.9,10.1,1.5c14.1-10.6,31-16.1,48.7-16.1h2.4l26,28.8c4.1,4.6,11.4,3.8,14.6-1.3
		l12.9-20.9l12.9,20.9c3.2,5.2,10.5,5.9,14.6,1.3l26-28.8h2.4c44.9,0,81.5,36.5,81.5,81.5v48.7h-13.8c-4,0-7.2,3.2-7.2,7.2
		c0,4,3.2,7.2,7.2,7.2h21.1c4,0,7.2-3.2,7.2-7.2V435c0-52.9-43-95.9-95.9-95.9h-3l-16.7-13.9v-17.6c14.4-5,27.6-12.8,38.6-22.9h30.8
		c19.1,0,34.7-15.5,34.7-34.7v0h0.1c15.9,0,28.8-12.9,28.8-28.8V167C490,157.1,485,148.4,477.4,143.2L477.4,143.2z M451.8,96.6
		c6.8,5.2,11.2,13.4,11.2,22.4v19.3c-0.6,0-1.2-0.1-1.8-0.1H451C453,126.7,454.1,112.1,451.8,96.6L451.8,96.6z M178.6,119
		c0-9,4.3-17.2,11.2-22.4c-2.3,15.6-1.2,30.2,0.8,41.6h-10.2c-0.6,0-1.2,0-1.8,0.1V119z M209.4,232c0,1.9-1.6,3.5-3.5,3.5h-25.5
		c-7.9,0-14.3-6.4-14.3-14.3V167c0-7.9,6.4-14.3,14.3-14.3h25.5c1.9,0,3.5,1.6,3.5,3.5v28.7v0.1V232z M299.3,367.4l-18.4-20.3
		l11.6-9.6l18.3,11.3L299.3,367.4z M342.3,367.4l-11.5-18.7l18.3-11.3l11.6,9.6L342.3,367.4z M342.5,324.5l-21.7,13.3l-21.7-13.3
		v-13.1c7,1.4,14.2,2.1,21.6,2.1h0.1c7.4,0,14.6-0.7,21.6-2.1L342.5,324.5L342.5,324.5z M320.8,299.1h-0.1
		c-53.4,0-96.8-43.4-96.8-96.8v-8.8c7.3-0.1,11-4.1,12.5-6.6c5.2-8.5,7.6-48.4,9.1-64.1c0.6-7.7,4-18.2,11.2-22.8
		c4.6-2.9,10.7-3,17.9-0.2c28,10.9,64.3,10.9,92.3,0c7.2-2.8,13.2-2.7,17.9,0.2c7.3,4.6,10.6,15.1,11.2,22.8
		c1.4,14.2,3.9,55.6,9.1,64.1c1.6,2.5,5.2,6.5,12.5,6.6v8.8c0,26.4-10.7,50.4-27.9,67.9h-60.1c-4,0-7.2,3.2-7.2,7.2
		c0,4,3.2,7.2,7.2,7.2h42C356.9,293.8,339.5,299.1,320.8,299.1L320.8,299.1z M446.6,250c0,11.1-9.1,20.2-20.2,20.2h-17.5
		c5.9-7.6,10.8-16,14.6-25c3.2,3,7.5,4.8,12.2,4.8L446.6,250L446.6,250z M475.5,221.2c0,7.9-6.4,14.3-14.3,14.3h-25.5
		c-1.9,0-3.5-1.6-3.5-3.5v-47c0,0,0-0.1,0-0.1v-28.7c0-1.9,1.6-3.5,3.5-3.5h25.5c7.9,0,14.3,6.4,14.3,14.3V221.2z"/>
	<path d="M343.4,424.9c0-12.5-10.2-22.7-22.7-22.7c-12.5,0-22.7,10.2-22.7,22.7c0,12.5,10.2,22.7,22.7,22.7
		C333.3,447.6,343.4,437.4,343.4,424.9z M312.6,424.9c0-4.5,3.7-8.2,8.2-8.2c4.5,0,8.2,3.7,8.2,8.2c0,4.5-3.7,8.2-8.2,8.2
		C316.3,433.1,312.6,429.4,312.6,424.9z"/>
	<path class="st9" d="M87.1,337.4l13.4,118.5c0.7,6,6.1,10.9,12,10.9h154.4c5.9,0,10.2-4.9,9.5-10.9l-13.4-118.5
		c-0.7-6-6.1-10.9-12-10.9H96.7C90.8,326.6,86.5,331.5,87.1,337.4z"/>
	<g>
		<path class="st10" d="M251.2,466.8h15.8c5.9,0,10.2-4.9,9.5-10.9l-13.4-118.5c-0.7-6-6.1-10.9-12-10.9h-15.8
			c5.9,0,11.3,4.9,12,10.9l13.4,118.5C261.4,461.9,257.1,466.8,251.2,466.8z"/>
		<path class="st10" d="M84.3,476.1l0.9,7.6c0.7,5.9,6.1,10.8,12,10.8h191.5c5.9,0,10.2-4.8,9.6-10.8l-0.9-7.6
			c-0.7-5.9-6.1-10.8-12-10.8H93.8C87.9,465.3,83.6,470.1,84.3,476.1z"/>
	</g>
	<path class="st11" d="M84.5,472.6c-0.3,1.1-0.3,2.3-0.2,3.5l0.9,7.6c0.7,5.9,6.1,10.8,12,10.8h191.5c5.9,0,10.2-4.8,9.6-10.8
		l-0.9-7.6c-0.1-1.2-0.5-2.4-1-3.5c-1,4.2-4.7,7.3-9.4,7.3H95.5C90.8,479.8,86.4,476.8,84.5,472.6z"/>
	<g>
		<path d="M250.2,318.7H95.8c-8.9,0-15.4,7.3-14.4,16.3l5.8,51.5c0.3,3,3,5.4,6,5.4h0c3,0,5.2-2.4,4.8-5.4l-5.8-51.5
			c-0.3-3,1.8-5.5,4.7-5.5h154.4c2.6,0,5.1,2,5.7,2.9l13.3,118.1c0.5,4-0.5,8.3-4.4,8.3H111.6c-2.9,0-5.6-2.4-5.9-5.5l-4.6-40.4
			c-0.3-3-3-5.4-6-5.4h0c-3,0-5.2,2.4-4.8,5.4l4.6,40.4c1,9,9.1,16.3,18,16.3h154.4c7.8,0,15.5-6,14-19.2l-13.4-118.5
			C267.2,326.1,259.2,318.7,250.2,318.7z"/>
	</g>
	<g>
		<path d="M284.7,459.9H93.2c-9,0-15.4,7.3-14.4,16.2l0.9,7.6c1,9,9.1,16.2,18,16.2h82.5c3,0,5.2-2.4,4.8-5.4l0,0
			c-0.3-3-3-5.4-6-5.4H96.5c-2.9,0-5.6-2.4-5.9-5.3l-0.9-7.6c-0.3-3,1.8-5.3,4.7-5.3h191.5c2.9,0,5.6,2.4,5.9,5.3l0.9,7.6
			c0.3,2.9-1.8,5.3-4.7,5.3h-82.5c-3,0-5.2,2.4-4.8,5.4v0c0.3,3,3,5.4,6,5.4h82.5c9,0,15.4-7.3,14.4-16.2l-0.9-7.6
			C301.7,467.1,293.6,459.9,284.7,459.9z"/>
	</g>
	<g>
		<g>
			<g>
				<path d="M188.8,398.3c-0.9-1.1-1.5-2.4-1.6-3.8c-0.1-1.3,0.1-2.5,0.7-3.6c0.3-0.6,0.9-1.3,1.7-2c-0.7-0.7-1.3-1.3-2-1.7
					c-1.2-0.7-2.4-1.1-3.8-1.1c-0.8,0-1.8,0.2-2.9,0.6c-1.1,0.4-1.9,0.6-2.4,0.6c-0.4,0-1.2-0.2-2.4-0.5c-1.2-0.3-2.3-0.5-3.1-0.5
					c-2,0-3.5,0.8-4.6,2.5c-1.1,1.7-1.5,3.8-1.2,6.4c0.3,2.8,1.5,5.7,3.5,8.7c2,3,3.9,4.5,5.7,4.5c0.6,0,1.3-0.2,2.2-0.6
					c0.9-0.4,1.7-0.6,2.4-0.6c0.7,0,1.6,0.2,2.7,0.6c1.1,0.4,1.9,0.6,2.5,0.6c1.5,0,2.8-1.1,4-3.4c0.8-1.4,1.3-2.9,1.6-4.3
					C190.7,400.1,189.7,399.4,188.8,398.3z"/>
				<path d="M181.4,385c0.6-0.7,1.1-1.5,1.3-2.4c0.2-0.9,0.3-1.6,0.2-2.3c0,0,0-0.1,0-0.2c0-0.1,0-0.1,0-0.2c0,0,0-0.1-0.1-0.2
					c0-0.1,0-0.2-0.1-0.2c-2,0.5-3.3,1.3-4,2.5c-0.7,1.2-1,2.7-0.8,4.4c0.8-0.1,1.3-0.2,1.8-0.3C180.3,386,180.9,385.6,181.4,385z"
					/>
			</g>
		</g>
		<g>
		</g>
		<g>
		</g>
		<g>
		</g>
		<g>
		</g>
		<g>
		</g>
		<g>
		</g>
		<g>
		</g>
		<g>
		</g>
		<g>
		</g>
		<g>
		</g>
		<g>
		</g>
		<g>
		</g>
		<g>
		</g>
		<g>
		</g>
		<g>
		</g>
	</g>
</g>
</svg>
