<?xml version="1.0" encoding="utf-8"?>
<!-- Generator: Adobe Illustrator 23.0.1, SVG Export Plug-In . SVG Version: 6.00 Build 0)  -->
<svg version="1.1" id="Capa_1" xmlns="http://www.w3.org/2000/svg" xmlns:xlink="http://www.w3.org/1999/xlink" x="0px" y="0px"
	 viewBox="0 0 58 58" style="enable-background:new 0 0 58 58;" xml:space="preserve">
<style type="text/css">
	.st0{fill:url(#SVGID_1_);}
	.st1{fill:url(#SVGID_2_);}
	.st2{fill:url(#SVGID_3_);}
	.st3{fill:#FFFFFF;stroke:#231F20;stroke-width:0.5;}
	.st4{fill:url(#SVGID_4_);}
	.st5{fill:#EB008B;}
	.st6{fill:url(#SVGID_5_);}
	.st7{fill:url(#SVGID_6_);}
	.st8{fill:#F9A51A;}
	.st9{fill:url(#SVGID_7_);}
	.st10{fill:url(#SVGID_8_);}
	.st11{fill:url(#SVGID_9_);}
	.st12{fill:url(#SVGID_10_);}
	.st13{fill:url(#SVGID_11_);}
</style>
<g>
	<g>
		<linearGradient id="SVGID_1_" gradientUnits="userSpaceOnUse" x1="2.6804" y1="1.0866" x2="3.2686" y2="41.7925">
			<stop  offset="0" style="stop-color:#FFDD00"/>
			<stop  offset="1" style="stop-color:#F28C21"/>
		</linearGradient>
		<polygon class="st0" points="6.1,30.7 6,30.6 6,20.4 0,26 0,26 		"/>
		<linearGradient id="SVGID_2_" gradientUnits="userSpaceOnUse" x1="54.491" y1="0.3379" x2="55.0792" y2="41.0437">
			<stop  offset="0" style="stop-color:#FFDD00"/>
			<stop  offset="1" style="stop-color:#F28C21"/>
		</linearGradient>
		<polygon class="st1" points="52,20.4 52,30.6 51.8,30.7 51.8,30.7 58,26 58,26 		"/>
		<g>
			<linearGradient id="SVGID_3_" gradientUnits="userSpaceOnUse" x1="18.259" y1="4.5" x2="39.741" y2="4.5">
				<stop  offset="0" style="stop-color:#FFDD00"/>
				<stop  offset="1" style="stop-color:#FFDD00"/>
			</linearGradient>
			<path class="st2" d="M39.7,9l-8.9-8.3c-1-1-2.7-1-3.7,0L18.3,9H39.7z"/>
		</g>
	</g>
	<path class="st3" d="M50,9H8c-1.1,0-2,0.9-2,2v20l15,11.6h16L52,31V11C52,9.9,51.1,9,50,9z"/>
	<linearGradient id="SVGID_4_" gradientUnits="userSpaceOnUse" x1="25" y1="16.9995" x2="33" y2="16.9995">
		<stop  offset="0" style="stop-color:#8F358A"/>
		<stop  offset="1" style="stop-color:#2E3191"/>
	</linearGradient>
	<path class="st4" d="M32,18h-6c-0.6,0-1-0.4-1-1s0.4-1,1-1h6c0.6,0,1,0.4,1,1S32.6,18,32,18z"/>
	<path class="st5" d="M41,34h-6c-0.6,0-1-0.4-1-1s0.4-1,1-1h6c0.6,0,1,0.4,1,1S41.6,34,41,34z"/>
	<linearGradient id="SVGID_5_" gradientUnits="userSpaceOnUse" x1="16" y1="24.9995" x2="23" y2="24.9995">
		<stop  offset="0" style="stop-color:#FFF100"/>
		<stop  offset="1" style="stop-color:#F05A22"/>
	</linearGradient>
	<path class="st6" d="M22,26h-5c-0.6,0-1-0.4-1-1s0.4-1,1-1h5c0.6,0,1,0.4,1,1S22.6,26,22,26z"/>
	<linearGradient id="SVGID_6_" gradientUnits="userSpaceOnUse" x1="29" y1="24.9995" x2="38" y2="24.9995">
		<stop  offset="0" style="stop-color:#8F358A"/>
		<stop  offset="1" style="stop-color:#2E3191"/>
	</linearGradient>
	<path class="st7" d="M37,26h-7c-0.6,0-1-0.4-1-1s0.4-1,1-1h7c0.6,0,1,0.4,1,1S37.6,26,37,26z"/>
	<path class="st8" d="M26,26c-0.3,0-0.5-0.1-0.7-0.3C25.1,25.5,25,25.3,25,25c0-0.3,0.1-0.5,0.3-0.7c0.4-0.4,1-0.4,1.4,0
		c0.2,0.2,0.3,0.4,0.3,0.7c0,0.3-0.1,0.5-0.3,0.7C26.5,25.9,26.3,26,26,26z"/>
	<linearGradient id="SVGID_7_" gradientUnits="userSpaceOnUse" x1="20" y1="32.9995" x2="32" y2="32.9995">
		<stop  offset="0" style="stop-color:#FFF100"/>
		<stop  offset="1" style="stop-color:#F05A22"/>
	</linearGradient>
	<path class="st9" d="M31,34H21c-0.6,0-1-0.4-1-1s0.4-1,1-1h10c0.6,0,1,0.4,1,1S31.6,34,31,34z"/>
	<linearGradient id="SVGID_8_" gradientUnits="userSpaceOnUse" x1="16" y1="33.0057" x2="18" y2="33.0057">
		<stop  offset="0" style="stop-color:#2E3191"/>
		<stop  offset="1" style="stop-color:#8F358A"/>
	</linearGradient>
	<path class="st10" d="M17,34c-0.3,0-0.5-0.1-0.7-0.3C16.1,33.5,16,33.3,16,33s0.1-0.5,0.3-0.7c0.4-0.4,1-0.4,1.4,0
		c0.2,0.2,0.3,0.5,0.3,0.7s-0.1,0.5-0.3,0.7C17.5,33.9,17.3,34,17,34z"/>
	<path class="st5" d="M41,26c-0.3,0-0.5-0.1-0.7-0.3C40.1,25.5,40,25.3,40,25c0-0.3,0.1-0.5,0.3-0.7c0.4-0.4,1-0.4,1.4,0
		c0.2,0.2,0.3,0.4,0.3,0.7c0,0.3-0.1,0.5-0.3,0.7C41.5,25.9,41.3,26,41,26z"/>
	<linearGradient id="SVGID_9_" gradientUnits="userSpaceOnUse" x1="29.0107" y1="57.5422" x2="29.3636" y2="42.454">
		<stop  offset="0" style="stop-color:#F15F52"/>
		<stop  offset="1" style="stop-color:#E01B22"/>
	</linearGradient>
	<polygon class="st11" points="0,58 0.1,58 57.5,58 57.9,58 58,58 37,42 21,42 	"/>
	<linearGradient id="SVGID_10_" gradientUnits="userSpaceOnUse" x1="10.5153" y1="50.0162" x2="-1.073" y2="37.3103">
		<stop  offset="0" style="stop-color:#F15F52"/>
		<stop  offset="0.1701" style="stop-color:#ED4E46"/>
		<stop  offset="0.4972" style="stop-color:#E63232"/>
		<stop  offset="0.7848" style="stop-color:#E12126"/>
		<stop  offset="1" style="stop-color:#E01B22"/>
	</linearGradient>
	<polygon class="st12" points="0,58 0,26 21,42 	"/>
	<linearGradient id="SVGID_11_" gradientUnits="userSpaceOnUse" x1="47.1985" y1="50.3427" x2="58.2648" y2="37.7456">
		<stop  offset="0" style="stop-color:#F15F52"/>
		<stop  offset="0.1919" style="stop-color:#EC4B44"/>
		<stop  offset="0.5041" style="stop-color:#E53131"/>
		<stop  offset="0.7834" style="stop-color:#E12126"/>
		<stop  offset="1" style="stop-color:#E01B22"/>
	</linearGradient>
	<polygon class="st13" points="58,58 58,26 37,42 	"/>
</g>
</svg>
