<?xml version="1.0" encoding="utf-8"?>
<!-- Generator: Adobe Illustrator 21.0.0, SVG Export Plug-In . SVG Version: 6.00 Build 0)  -->
<svg version="1.1" id="Layer_1" xmlns="http://www.w3.org/2000/svg" xmlns:xlink="http://www.w3.org/1999/xlink" x="0px" y="0px"
	 viewBox="0 0 214.2 92" style="enable-background:new 0 0 214.2 92;" xml:space="preserve">
<style type="text/css">
	.st0{fill:#231F20;}
	.st1{fill:#E01B22;}
</style>
<g>
	<g>
		<g>
			<g>
				<path class="st0" d="M58.8,60.7h-6.1V18.6h9.8c2.8,0,4.9,0.1,6.3,0.4c1.4,0.3,2.7,0.7,3.8,1.4c1.8,1,3.2,2.5,4.2,4.4
					c1,1.9,1.6,4,1.6,6.2c0,3.9-1.3,7-4,9.3c-2.6,2.3-6.2,3.5-10.7,3.5h-4.9V60.7z M58.8,38.1h4.4c3.1,0,5.4-0.5,6.8-1.7
					c1.4-1.1,2.1-2.8,2.1-5.2c0-2.4-0.7-4.2-2.2-5.3c-1.4-1.2-3.6-1.7-6.6-1.7h-4.6V38.1z"/>
				<path class="st0" d="M83.6,60.7V18.6h5.7v42.2H83.6z"/>
				<path class="st0" d="M101,47c0.5,2.7,1.7,4.8,3.6,6.5c1.9,1.6,4.2,2.5,6.8,2.5c1.9,0,3.6-0.5,5.2-1.4c1.5-0.9,2.8-2.2,3.7-3.9
					h6.5c-1.5,3.5-3.5,6.2-6.1,8.1c-2.6,1.9-5.7,2.8-9.2,2.8c-2.4,0-4.5-0.4-6.5-1.2c-1.9-0.8-3.7-2.1-5.3-3.7
					c-1.5-1.6-2.6-3.4-3.5-5.5c-0.8-2.1-1.3-4.2-1.3-6.3c0-2.2,0.4-4.3,1.1-6.3c0.8-1.9,1.9-3.7,3.4-5.3c1.6-1.7,3.4-3,5.3-3.9
					c2-0.9,4.2-1.3,6.5-1.3c2.8,0,5.4,0.7,7.8,2c2.4,1.3,4.4,3.1,5.9,5.5c0.9,1.4,1.6,3,2.1,4.8c0.4,1.7,0.7,3.7,0.7,5.9V47H101z
					 M121.4,41.8c-0.7-2.6-1.9-4.7-3.7-6.1c-1.8-1.4-3.9-2.2-6.3-2.2c-2.5,0-4.7,0.7-6.5,2.2c-1.8,1.5-3.1,3.5-3.8,6H121.4z"/>
				<path class="st0" d="M150.7,60.7l-7.4-12l-7.7,12h-6.3l10.8-16.5l-9.5-15.3h6.4l6.6,10.9l6.8-10.9h6.6L146.9,44l10.2,16.7H150.7
					z"/>
			</g>
			<rect x="59" y="63.3" class="st0" width="150.1" height="0.8"/>
			<g>
				<g>
					<g>
						<path class="st0" d="M20.1,56.7c-2-0.2-3.3-1-3.9-2.3l0,0c-0.6-1.3-0.1-3,1.6-5.1l0,0c1-1.2,2.6-2.7,4.8-4.5l0,0
							c-3.5,0-6.5-0.8-9.2-2.3l0,0c-2.8-1.6-4.9-3.8-6.2-6.5l0,0C5,31.7,5.2,27.7,7.6,23.9l0,0c2.1-3.5,5.7-6.2,10.6-8.1l0,0
							c2.6-1,5.2-1.6,7.8-1.8l0,0c2.3-0.2,4.3-0.1,5.9,0.3l0,0c0.6-1.6,1.4-3,2.5-4.1l0,0c1.1-1.1,2.3-1.9,3.7-2.4l0,0
							c1-0.4,2-0.5,3.1-0.4l0,0c1.1,0.1,1.9,0.6,2.4,1.4l0,0c0.5,0.8,0.6,1.6,0.4,2.4l0,0c-0.1,0.8-0.7,1.4-1.6,1.8l0,0
							c-0.6,0.2-1.2,0.3-1.8,0.3l0,0c-0.4,0-0.9,0-1.6,0l0,0c-1-0.1-1.8-0.1-2.3,0l0,0c-0.8,0.3-1.5,0.9-2.1,1.9l0,0
							c1.7,0.8,3.2,1.7,4.6,2.8l0,0c1.4,1.2,2.6,2.5,3.4,4l0,0c2.3,4,2.4,8,0.3,11.9l0,0c-2,3.8-5.4,6.7-10.4,8.7l0,0
							c-1.1,0.5-2.1,0.8-2.9,1l0,0c-1.3,0.4-2.6,0.7-4.1,0.9l0,0c-1.4,0.9-2.5,1.8-3.2,2.7l0,0c-0.7,1-1,1.7-0.7,2.3l0,0
							c0.3,0.7,0.8,1.2,1.5,1.5l0,0c0.9,0.4,2.3,0.4,4.2,0l0,0c2.2-0.5,4.5-0.9,7-1.4l0,0c1.5-0.4,3.7-0.9,6.7-1.6l0,0l5.6-1.3l0,0
							c4.4-1,8-1.3,10.9-0.7l0,0c3.5,0.6,6,2.3,7.7,5.1l0,0c2.2,3.8,1.5,7.6-2.1,11.5l0,0c-3.1,3.4-6.2,5.8-13.2,9.4l0,0
							C33.9,80.2,20.6,75.4,19,72l0,0c0,0,9.9,7.3,29.5-2.5l0,0c4.3-2.1,7.6-4.7,10-7.5l0,0c2.5-2.8,3.2-5.1,2.1-6.9l0,0
							c-0.9-1.6-2.6-2.7-4.8-3.2l0,0c-2.4-0.6-5.4-0.4-9.1,0.4l0,0l-11.2,2.5l0,0C35.5,54.9,25.5,57.1,20.1,56.7z M12.7,24.5
							c-0.8,2.8-0.4,5.7,1.2,8.8l0,0c1.6,3.2,3.9,5.5,6.9,6.9l0,0c3.5,1.7,7,1.8,10.7,0.3l0,0c3.5-1.4,5.7-3.8,6.4-7.2l0,0
							c0.7-2.9,0.2-5.9-1.5-8.9l0,0c-1.7-3-4-5.1-7-6.4l0,0c-3.3-1.5-6.7-1.6-10.1-0.3l0,0C15.8,19.2,13.6,21.4,12.7,24.5z"/>
					</g>
				</g>
				<g>
					<g>
						<path class="st1" d="M21,54.7c-2-0.2-3.3-1-3.9-2.3l0,0c-0.6-1.3-0.1-3,1.6-5.1l0,0c1-1.2,2.6-2.7,4.8-4.5l0,0
							c-3.5,0-6.5-0.8-9.3-2.3l0,0C11.5,38.9,9.4,36.7,8,34l0,0C6,29.7,6.2,25.7,8.5,21.9l0,0c2.1-3.5,5.7-6.2,10.6-8.1l0,0
							c2.6-1,5.2-1.6,7.8-1.8l0,0c2.3-0.2,4.3-0.1,6,0.4l0,0c0.6-1.6,1.4-3,2.5-4.1l0,0c1.1-1.1,2.3-1.9,3.7-2.4l0,0
							c1-0.4,2-0.5,3.1-0.4l0,0c1.1,0.1,1.9,0.6,2.4,1.4l0,0c0.5,0.8,0.6,1.6,0.4,2.4l0,0c-0.1,0.8-0.7,1.4-1.6,1.7l0,0
							c-0.6,0.2-1.2,0.3-1.8,0.3l0,0c-0.4,0-0.9,0-1.6,0l0,0c-1.1-0.1-1.8-0.1-2.3,0.1l0,0c-0.8,0.3-1.5,0.9-2.1,1.9l0,0
							c1.7,0.7,3.2,1.7,4.6,2.8l0,0c1.4,1.2,2.6,2.5,3.4,4l0,0c2.3,4,2.4,8,0.3,11.9l0,0c-2,3.8-5.4,6.7-10.4,8.7l0,0
							c-1.1,0.5-2.1,0.8-2.9,1l0,0c-1.3,0.4-2.6,0.7-4.1,0.9l0,0c-1.4,0.9-2.5,1.8-3.2,2.7l0,0c-0.7,1-1,1.7-0.7,2.3l0,0
							c0.3,0.7,0.8,1.2,1.5,1.5l0,0c0.9,0.4,2.3,0.4,4.3,0l0,0c2.2-0.5,4.5-0.9,7-1.4l0,0c1.5-0.4,3.7-0.9,6.7-1.6l0,0l5.6-1.3l0,0
							c4.4-1,8-1.3,10.9-0.8l0,0c3.5,0.6,6,2.3,7.7,5.1l0,0c2.2,3.8,1.5,7.6-2.1,11.5l0,0c-3.1,3.4-6.2,5.8-13.2,9.4l0,0
							c-16.2,8.3-29.5,3.5-31.1,0.1l0,0c0,0,9.9,7.3,29.5-2.5l0,0c4.3-2.1,7.6-4.7,10-7.5l0,0c2.5-2.8,3.2-5.1,2.2-6.9l0,0
							c-1-1.7-2.6-2.7-4.8-3.2l0,0c-2.4-0.6-5.4-0.4-9.2,0.4l0,0l-11.2,2.5l0,0C36.4,52.9,26.4,55.1,21,54.7z M13.6,22.5
							c-0.8,2.8-0.4,5.7,1.2,8.8l0,0c1.6,3.2,3.9,5.5,6.9,6.9l0,0c3.5,1.7,7,1.8,10.7,0.3l0,0c3.5-1.4,5.7-3.8,6.5-7.2l0,0
							c0.7-2.9,0.2-5.9-1.5-8.9l0,0c-1.7-3-4-5.1-7-6.4l0,0c-3.3-1.5-6.7-1.5-10.1-0.2l0,0C16.7,17.2,14.5,19.4,13.6,22.5z"/>
					</g>
				</g>
			</g>
		</g>
		<g>
			<g>
				<path class="st0" d="M163.9,23.9v-7.5h3.3c0.7,0,1.2,0.1,1.5,0.2c0.3,0.1,0.6,0.4,0.8,0.7c0.2,0.3,0.3,0.7,0.3,1.1
					c0,0.5-0.2,1-0.5,1.4c-0.3,0.4-0.9,0.6-1.6,0.7c0.3,0.1,0.5,0.3,0.6,0.4c0.3,0.3,0.6,0.6,0.8,1l1.3,2h-1.2l-1-1.6
					c-0.3-0.5-0.5-0.8-0.7-1c-0.2-0.2-0.4-0.4-0.5-0.5c-0.2-0.1-0.3-0.2-0.5-0.2c-0.1,0-0.3,0-0.6,0h-1.2v3.3H163.9z M164.9,19.7
					h2.1c0.5,0,0.8,0,1.1-0.1c0.3-0.1,0.5-0.2,0.6-0.5c0.1-0.2,0.2-0.4,0.2-0.7c0-0.4-0.1-0.6-0.4-0.9c-0.3-0.2-0.7-0.3-1.2-0.3
					h-2.4V19.7z"/>
			</g>
			<path class="st0" d="M161.1,20.2c0,3.3,2.7,6.1,6.1,6.1c3.3,0,6.1-2.7,6.1-6.1c0-3.3-2.7-6.1-6.1-6.1
				C163.8,14.1,161.1,16.8,161.1,20.2z M161.5,20.2c0-3.1,2.5-5.7,5.7-5.7c3.1,0,5.7,2.5,5.7,5.7c0,3.1-2.5,5.7-5.7,5.7
				C164.1,25.8,161.5,23.3,161.5,20.2z"/>
		</g>
	</g>
	<g>
		<g>
			<path class="st0" d="M70.5,85.3c-2.7,0-4.2-1.1-4.9-1.8c-1.4-1.4-1.8-3.3-1.8-6.1c0-2.2,0.2-4.7,1.8-6.4c0.8-0.9,2.4-2,5-2h6.3
				V70h-5.7c-1.2,0-3.4,0.1-4.8,1.9c-1.1,1.5-1.2,3.6-1.2,5.4c0,1.3,0,3.3,1.1,4.8c1.4,1.9,3.8,2,4.5,2h6.3v1.1H70.5z"/>
			<path class="st0" d="M79.8,74.1c1.2-1.2,3-1.4,4.6-1.4c1.6,0,3.4,0.2,4.6,1.4c1.4,1.3,1.5,3.5,1.5,4.9c0,2.7-0.7,4.2-1.5,5
				c-1.4,1.3-3.5,1.4-4.6,1.4c-1.1,0-3.2-0.1-4.6-1.4c-0.8-0.8-1.5-2.3-1.5-5C78.3,77.6,78.5,75.4,79.8,74.1z M80.6,83.1
				c1,1.1,2.6,1.2,3.8,1.2c1.3,0,2.8-0.1,3.8-1.2c1-1.1,1-3,1-4c0-1.1,0-3-1-4.1c-1-1.1-2.7-1.1-3.8-1.1c-1.2,0-2.9,0.1-3.8,1.1
				c-1,1.1-1,3.1-1,4.1C79.6,80.1,79.6,82,80.6,83.1z"/>
			<path class="st0" d="M92.4,74.5c0-0.3,0-0.8,0.3-1.1c0.3-0.4,0.8-0.5,1.2-0.5h4.4c1.2,0,2.1,0.2,2.9,0.9c0.4,0.4,1,1.2,1,2.9v8.6
				H101V77c0-1.1-0.1-1.7-0.5-2.2c-0.5-0.7-1.2-0.8-2-0.8h-4.4c-0.1,0-0.3,0-0.3,0.1c-0.1,0.1-0.1,0.3-0.1,0.4v10.8h-1.2V74.5z"/>
			<path class="st0" d="M109.2,85.3c-1.1,0-2.2,0-3-0.7c-0.8-0.7-0.8-2-0.8-3.4V74h-1.7v-1.1h1.7v-4h1.2v4h3.4V74h-3.4v6.9
				c0,1.1-0.1,2.5,0.7,3c0.3,0.2,0.8,0.3,2.2,0.3h0.7v1.1H109.2z"/>
			<path class="st0" d="M117.6,72.9c0.8,0,1.7,0.3,2.2,0.9c0.7,0.7,0.7,1.7,0.7,2.5v7.4c0,0.3,0,0.9-0.4,1.3c-0.4,0.4-1,0.4-1.4,0.4
				h-4.8c-0.7,0-1.6,0-2.2-0.6c-1-0.8-1.1-2.5-1.1-3.3c0-1,0.1-2.2,1-2.9c0.7-0.6,1.6-0.7,2.3-0.7h5.4V76c0-0.4-0.2-1.1-0.5-1.5
				c-0.3-0.3-0.7-0.6-1.3-0.6h-6v-1.1H117.6z M113.6,79c-0.7,0-1.2,0.4-1.4,0.6c-0.3,0.4-0.4,1.1-0.4,1.9c0,0.7,0.1,1.6,0.5,2.2
				c0.3,0.3,0.7,0.5,1.2,0.5h5c0.1,0,0.4,0,0.5-0.1c0.2-0.1,0.2-0.3,0.2-0.4V79H113.6z"/>
			<path class="st0" d="M127.2,85.3c-1.8,0-2.9-0.7-3.7-1.6c-1-1.2-1.1-2.6-1.1-4.5c0-1.7,0.1-3.7,1.4-5c0.7-0.7,1.9-1.4,3.9-1.4
				h4.2V74h-4.3c-2,0-3.2,1.1-3.6,2.5c-0.2,0.7-0.2,2.3-0.2,2.9c0,0.8,0.1,2.2,0.4,2.9c0.7,1.6,2.5,1.8,3.7,1.8h4.4v1.1H127.2z"/>
			<path class="st0" d="M138.6,85.3c-1.1,0-2.2,0-3-0.7c-0.8-0.7-0.8-2-0.8-3.4V74h-1.7v-1.1h1.7v-4h1.2v4h3.4V74H136v6.9
				c0,1.1-0.1,2.5,0.7,3c0.3,0.2,0.8,0.3,2.2,0.3h0.7v1.1H138.6z"/>
			<path class="st0" d="M152.6,85.3c-2.7,0-4.2-1.1-4.9-1.8c-1.4-1.4-1.8-3.3-1.8-6.1c0-2.2,0.2-4.7,1.8-6.4c0.8-0.9,2.4-2,5-2h6.3
				V70h-5.7c-1.2,0-3.4,0.1-4.8,1.9c-1.1,1.5-1.2,3.6-1.2,5.4c0,1.3,0,3.3,1.1,4.8c1.4,1.9,3.8,2,4.5,2h6.3v1.1H152.6z"/>
			<path class="st0" d="M164.7,85.3c-1,0-2.3-0.3-3.3-1.5c-1-1.2-1-2.8-1-4.6c0-1.7,0.1-3.8,1.7-5.1c1.1-0.9,2.6-1.1,3.9-1.1
				c0.9,0,2.2,0.1,3.2,0.7c0.5,0.3,2,1.3,2,3.9c0,0.4,0,1.2-0.5,1.6c-0.4,0.3-1,0.4-1.3,0.4h-7.6c0,0.7,0,1.9,0.2,2.5
				c0.3,1,1.1,2.2,2.8,2.2h6.1v1.1H164.7z M169.3,78.4c0.5,0,0.5-0.7,0.5-0.8c0-1.2-0.4-2-0.8-2.5c-0.9-1.1-2.1-1.1-3.2-1.1
				c-1.2,0-2.6,0-3.4,1.5c-0.5,0.8-0.6,1.7-0.6,2.9H169.3z"/>
			<path class="st0" d="M173,74.5c0-0.3,0-0.8,0.3-1.1c0.3-0.4,0.8-0.5,1.2-0.5h4.4c1.2,0,2.1,0.2,2.9,0.9c0.4,0.4,1,1.2,1,2.9v8.6
				h-1.2V77c0-1.1-0.1-1.7-0.5-2.2c-0.5-0.7-1.2-0.8-2-0.8h-4.4c-0.1,0-0.3,0-0.3,0.1c-0.1,0.1-0.1,0.3-0.1,0.4v10.8H173V74.5z"/>
			<path class="st0" d="M189.7,85.3c-1.1,0-2.2,0-3-0.7c-0.8-0.7-0.8-2-0.8-3.4V74h-1.7v-1.1h1.7v-4h1.2v4h3.4V74h-3.4v6.9
				c0,1.1-0.1,2.5,0.7,3c0.3,0.2,0.8,0.3,2.2,0.3h0.7v1.1H189.7z"/>
			<path class="st0" d="M195.4,85.3c-1,0-2.3-0.3-3.3-1.5c-1-1.2-1-2.8-1-4.6c0-1.7,0.1-3.8,1.7-5.1c1.1-0.9,2.6-1.1,3.9-1.1
				c0.9,0,2.2,0.1,3.2,0.7c0.5,0.3,2,1.3,2,3.9c0,0.4,0,1.2-0.5,1.6c-0.4,0.3-1,0.4-1.3,0.4h-7.6c0,0.7,0,1.9,0.2,2.5
				c0.3,1,1.1,2.2,2.8,2.2h6.1v1.1H195.4z M200,78.4c0.5,0,0.5-0.7,0.5-0.8c0-1.2-0.4-2-0.8-2.5c-0.9-1.1-2.1-1.1-3.2-1.1
				c-1.2,0-2.6,0-3.4,1.5c-0.5,0.8-0.6,1.7-0.6,2.9H200z"/>
			<path class="st0" d="M203.7,77.2c0-1.3,0.2-2.4,1.1-3.3c0.5-0.5,1.4-1,3-1h0.8V74h-0.7c-0.7,0-1.7,0.1-2.4,0.9
				c-0.5,0.6-0.6,1.6-0.6,2.6v7.9h-1.2V77.2z"/>
		</g>
	</g>
</g>
</svg>
