<?xml version="1.0" encoding="utf-8"?>
<!-- Generator: Adobe Illustrator 23.0.1, SVG Export Plug-In . SVG Version: 6.00 Build 0)  -->
<svg version="1.1" id="Layer_1" xmlns="http://www.w3.org/2000/svg" xmlns:xlink="http://www.w3.org/1999/xlink" x="0px" y="0px"
	 viewBox="0 0 531 182.9" style="enable-background:new 0 0 531 182.9;" xml:space="preserve">
<style type="text/css">
	.st0{clip-path:url(#SVGID_2_);fill:url(#SVGID_3_);}
	.st1{clip-path:url(#SVGID_2_);fill:url(#SVGID_4_);}
	.st2{clip-path:url(#SVGID_2_);fill:url(#SVGID_5_);}
	.st3{clip-path:url(#SVGID_2_);fill:url(#SVGID_6_);}
	.st4{fill:#F9F9F9;}
</style>
<g>
	<path d="M521.2,152.5c0,12.5-10.1,22.6-22.6,22.6H32.4c-12.5,0-22.6-10.1-22.6-22.6V30.4c0-12.5,10.1-22.6,22.6-22.6h466.3
		c12.5,0,22.6,10.1,22.6,22.6V152.5z"/>
	<g id="PLAY_1_">
		<defs>
			<path id="SVGID_1_" d="M120.6,81.4L97.5,68.1c0,0-42-24.3-44.5-25.7c-2.5-1.4-4.9-0.6-4.9,2.4c0,5,0,51.8,0,51.8s0,50.6,0,52.9
				c0,2.2,1.8,3.2,3.9,2c2.1-1.2,45.5-26.3,45.5-26.3l23.1-13.3c0,0,19.6-11.3,22.2-12.8c2.6-1.5,2.4-3.6,0.2-4.7
				C140.7,93.1,120.6,81.4,120.6,81.4z"/>
		</defs>
		<clipPath id="SVGID_2_">
			<use xlink:href="#SVGID_1_"  style="overflow:visible;"/>
		</clipPath>
		<linearGradient id="SVGID_3_" gradientUnits="userSpaceOnUse" x1="76.6817" y1="39.9896" x2="76.6817" y2="153.2924">
			<stop  offset="0" style="stop-color:#257DB0"/>
			<stop  offset="0.208" style="stop-color:#3C90B3"/>
			<stop  offset="0.7416" style="stop-color:#73BDB9"/>
			<stop  offset="1" style="stop-color:#89CEBC"/>
		</linearGradient>
		<polygon class="st0" points="48.1,40 48.1,96.6 48.1,153.3 105.2,96.6 		"/>
		<linearGradient id="SVGID_4_" gradientUnits="userSpaceOnUse" x1="48.1149" y1="68.1098" x2="120.5944" y2="68.1098">
			<stop  offset="0" style="stop-color:#51BFAC"/>
			<stop  offset="1" style="stop-color:#DEE899"/>
		</linearGradient>
		<polygon class="st1" points="120.6,81.4 97.5,68.1 48.1,39.6 48.1,40 105.2,96.6 		"/>
		<linearGradient id="SVGID_5_" gradientUnits="userSpaceOnUse" x1="84.3541" y1="96.642" x2="84.3541" y2="153.7045">
			<stop  offset="0" style="stop-color:#EB403D"/>
			<stop  offset="0.1937" style="stop-color:#D64252"/>
			<stop  offset="0.7369" style="stop-color:#9F4887"/>
			<stop  offset="1" style="stop-color:#894A9C"/>
		</linearGradient>
		<polygon class="st2" points="48.1,153.3 48.1,153.7 97.5,125.2 120.6,111.9 105.2,96.6 		"/>
		<linearGradient id="SVGID_6_" gradientUnits="userSpaceOnUse" x1="126.0994" y1="81.4252" x2="126.0994" y2="111.8568">
			<stop  offset="0" style="stop-color:#F48779"/>
			<stop  offset="0.6121" style="stop-color:#FAB076"/>
			<stop  offset="1" style="stop-color:#FDC674"/>
		</linearGradient>
		<polygon class="st3" points="120.6,81.4 105.2,96.6 120.6,111.9 147,96.6 		"/>
	</g>
	<g>
		<path class="st4" d="M407.8,118.8c-2.1,0-4.1-0.4-5.9-1.2c-1.8-0.8-3.3-2-4.5-3.7h-0.4c0.2,1.9,0.4,3.7,0.4,5.5V133h-5V85.2h4.1
			l0.7,4.5h0.2c1.3-1.8,2.8-3.1,4.5-3.9c1.7-0.8,3.7-1.2,5.9-1.2c4.4,0,7.7,1.5,10.1,4.5c2.4,3,3.6,7.2,3.6,12.6
			c0,5.4-1.2,9.6-3.6,12.6C415.5,117.3,412.1,118.8,407.8,118.8z M407.1,88.9c-3.4,0-5.8,0.9-7.3,2.8c-1.5,1.9-2.3,4.8-2.3,8.9v1.1
			c0,4.6,0.8,7.9,2.3,9.9c1.5,2,4,3,7.4,3c2.8,0,5.1-1.2,6.7-3.5c1.6-2.3,2.4-5.5,2.4-9.5c0-4.1-0.8-7.3-2.4-9.5
			C412.3,90,410,88.9,407.1,88.9z"/>
		<path class="st4" d="M433,118.2h-5V71.4h5V118.2z"/>
		<path class="st4" d="M461.7,118.2l-1-4.7h-0.2c-1.6,2.1-3.3,3.5-4.9,4.2c-1.6,0.7-3.7,1.1-6.1,1.1c-3.3,0-5.8-0.8-7.7-2.5
			s-2.8-4.1-2.8-7.2c0-6.7,5.3-10.1,16-10.5l5.6-0.2v-2c0-2.6-0.6-4.5-1.7-5.7c-1.1-1.2-2.9-1.8-5.3-1.8c-2.7,0-5.9,0.8-9.3,2.5
			l-1.5-3.8c1.6-0.9,3.4-1.6,5.3-2.1c1.9-0.5,3.9-0.8,5.8-0.8c3.9,0,6.8,0.9,8.7,2.6c1.9,1.7,2.8,4.5,2.8,8.4v22.5H461.7z
			 M450.5,114.7c3.1,0,5.5-0.9,7.3-2.6c1.8-1.7,2.7-4.1,2.7-7.2v-3l-5,0.2c-4,0.1-6.8,0.8-8.6,1.9c-1.8,1.1-2.6,2.8-2.6,5.1
			c0,1.8,0.5,3.2,1.6,4.1C447,114.2,448.5,114.7,450.5,114.7z"/>
		<path class="st4" d="M468.3,85.2h5.3l7.2,18.8c1.6,4.3,2.6,7.4,2.9,9.3h0.2c0.3-1,0.8-2.8,1.6-5.2c0.8-2.5,3.6-10.1,8.2-22.8h5.4
			l-14.2,37.5c-1.4,3.7-3,6.3-4.9,7.9c-1.9,1.6-4.2,2.3-6.9,2.3c-1.5,0-3-0.2-4.5-0.5v-4c1.1,0.2,2.3,0.4,3.7,0.4
			c3.4,0,5.9-1.9,7.3-5.8l1.8-4.7L468.3,85.2z"/>
	</g>
	<g>
		<path class="st4" d="M315.4,88.3c1.6,1.3,4.9,4.1,4.9,9.3c0,5.1-2.9,7.5-5.8,9.8c-0.9,0.9-1.9,1.9-1.9,3.4c0,1.5,1,2.3,1.8,3
			l2.5,1.9c3,2.6,5.8,4.9,5.8,9.7c0,6.5-6.3,13-18.1,13c-10,0-14.8-4.8-14.8-9.9c0-2.5,1.2-6,5.3-8.4c4.3-2.6,10.1-3,13.2-3.2
			c-1-1.2-2.1-2.5-2.1-4.7c0-1.2,0.3-1.9,0.7-2.7c-0.8,0.1-1.5,0.1-2.2,0.1c-7.3,0-11.4-5.4-11.4-10.8c0-3.2,1.4-6.7,4.4-9.2
			c3.9-3.2,8.6-3.8,12.3-3.8H324l-4.4,2.5H315.4z M310.5,118.9c-0.6-0.1-0.9-0.1-1.6-0.1c-0.6,0-4.3,0.1-7.2,1.1
			c-1.5,0.5-5.9,2.2-5.9,7.1c0,4.9,4.8,8.4,12.1,8.4c6.6,0,10.1-3.2,10.1-7.4C318,124.5,315.7,122.6,310.5,118.9z M312.5,105.8
			c1.6-1.6,1.7-3.8,1.7-5c0-5-3-12.7-8.7-12.7c-1.8,0-3.7,0.9-4.8,2.3c-1.2,1.4-1.5,3.3-1.5,5.1c0,4.6,2.7,12.3,8.6,12.3
			C309.5,107.7,311.4,106.9,312.5,105.8z"/>
		<path class="st4" d="M272,117.8c-10.9,0-16.8-8.5-16.8-16.2c0-9,7.4-16.7,17.8-16.7c10.1,0,16.4,7.9,16.4,16.2
			C289.4,109.2,283.2,117.8,272,117.8z M280.6,112.2c1.7-2.2,2.1-5,2.1-7.6c0-6.1-2.9-17.6-11.4-17.6c-2.3,0-4.5,0.9-6.2,2.3
			c-2.7,2.4-3.2,5.4-3.2,8.4c0,6.8,3.4,18,11.7,18C276.2,115.7,279,114.4,280.6,112.2z"/>
		<path class="st4" d="M234.7,117.8c-10.9,0-16.8-8.5-16.8-16.2c0-9,7.4-16.7,17.8-16.7c10.1,0,16.4,7.9,16.4,16.2
			C252.2,109.2,245.9,117.8,234.7,117.8z M243.3,112.2c1.7-2.2,2.1-5,2.1-7.6c0-6.1-2.9-17.6-11.4-17.6c-2.3,0-4.5,0.9-6.2,2.3
			c-2.7,2.4-3.2,5.4-3.2,8.4c0,6.8,3.4,18,11.7,18C238.9,115.7,241.7,114.4,243.3,112.2z"/>
		<path class="st4" d="M212.6,116.7l-9.9,2.3c-4,0.6-7.6,1.2-11.4,1.2c-19.1,0-26.4-14-26.4-25c0-13.4,10.3-25.9,27.9-25.9
			c3.7,0,7.3,0.6,10.6,1.5c5.2,1.5,7.6,3.3,9.1,4.3l-5.7,5.5l-2.4,0.6l1.7-2.8c-2.4-2.3-6.6-6.5-14.8-6.5
			c-10.9,0-19.2,8.3-19.2,20.4c0,13,9.4,25.2,24.5,25.2c4.4,0,6.7-0.9,8.8-1.7v-11.1l-10.4,0.6l5.5-3h14.7l-1.8,1.7
			c-0.5,0.4-0.6,0.6-0.7,1.1c-0.1,0.6-0.1,2.6-0.1,3.3V116.7z"/>
		<path class="st4" d="M337.2,114.7c-2.3-0.2-2.8-0.6-2.8-3.3v-0.8V72.3c0-0.1,0-0.3,0-0.4c0.3-2.4,1-2.8,3.1-4.1h-9.9l-5.2,2.5h5.3
			v0l0,0v40.4v2.3c0,1.4-0.3,1.6-1.9,3.7h12.2l2.6-1.5C339.6,114.9,338.4,114.9,337.2,114.7z"/>
		<path class="st4" d="M365.4,115.4c-0.8,0.4-1.5,0.9-2.3,1.2c-2.3,1-4.6,1.3-6.7,1.3c-2.2,0-5.6-0.1-9.1-2.7c-4.9-3.4-7-9.3-7-14.5
			c0-10.6,8.7-15.9,15.7-15.9c2.5,0,5,0.6,7.1,1.9c3.4,2.3,4.3,5.2,4.8,6.8l-16.1,6.5l-5.3,0.4c1.7,8.7,7.6,13.8,14.2,13.8
			c3.5,0,6-1.2,8.4-2.4L365.4,115.4z M358.9,94.9c1.3-0.5,2-0.9,2-1.9c0-2.7-3.1-5.9-6.8-5.9c-2.8,0-7.9,2.1-7.9,9.5
			c0,1.2,0.1,2.4,0.2,3.6L358.9,94.9z"/>
		<g>
			<path class="st4" d="M372,85.3v4.5h-0.6v-4.5H370v-0.5h3.5v0.5H372z"/>
			<path class="st4" d="M378.2,89.9v-4.6h0l-1.4,4.6h-0.4l-1.4-4.6h0v4.6h-0.5v-5h0.9l1.3,4h0l1.3-4h0.9v5H378.2z"/>
		</g>
	</g>
	<g>
		<path class="st4" d="M178.7,55.8h-3.4c0-0.5-0.3-1.8-1-4h-5c-0.7,2.2-1,3.5-1,4h-3.2c0-0.3,0.8-2.6,2.5-6.9
			c1.7-4.3,2.5-6.7,2.5-7.1h4.1c0,0.4,0.8,2.7,2.3,7C177.9,53.1,178.7,55.4,178.7,55.8z M173.7,49.7c-1.2-3.7-1.8-5.7-1.8-6h-0.2
			c0,0.3-0.6,2.3-1.9,6H173.7z"/>
		<path class="st4" d="M192.6,55.8h-2.7c0-0.3-1-1.8-3-4.7c-2.1-3-3.2-5-3.5-6.1h-0.2c0.2,1.6,0.3,3,0.3,4.3c0,1.8,0,3.9,0.2,6.5
			H181c0.1-2.2,0.2-4.7,0.2-7.3c0-2.6-0.1-4.8-0.2-6.7h3.2c0,0.4,0.9,1.9,2.7,4.5c1.9,2.8,3,4.7,3.2,5.7h0.2c-0.2-1.6-0.3-3-0.3-4.3
			c0-1.9-0.1-3.9-0.2-6h2.7c-0.1,1.8-0.2,4-0.2,6.7C192.4,51.2,192.5,53.6,192.6,55.8z"/>
		<path class="st4" d="M208.1,48.3c0,2-0.7,3.8-2,5.3c-1.3,1.5-3.1,2.3-5.5,2.3c-1.1,0-2.5,0-4.4-0.1c0.1-2.2,0.1-4.6,0.1-7.3
			c0-2.6,0-4.8-0.1-6.7h1.9c0.3,0,0.8,0,1.4,0c0.6,0,1,0,1.2,0c2.6,0,4.5,0.6,5.6,1.9C207.5,45,208.1,46.5,208.1,48.3z M205.2,48.8
			c0-1.4-0.4-2.5-1.2-3.5c-0.8-0.9-2-1.4-3.7-1.4c-0.3,0-0.7,0-1.3,0.1c0.1,1.4,0.1,2.9,0.1,4.5c0,1.7,0,3.4,0.1,5.1
			c0.5,0.1,0.9,0.1,1.4,0.1c1.5,0,2.7-0.5,3.4-1.4C204.8,51.3,205.2,50.2,205.2,48.8z"/>
		<path class="st4" d="M222.5,55.8h-3.2c-0.8-2.5-1.5-4.1-1.9-4.7c-0.4-0.6-1.2-0.9-2.1-0.9c-0.4,0-0.8,0-1.2,0c0,1.8,0,3.7,0.1,5.6
			h-3c0.1-2.2,0.1-4.6,0.1-7.3c0-2.6,0-4.8-0.1-6.7h1.9c0.2,0,0.7,0,1.3,0c0.7,0,1.3,0,1.9,0c3.3,0,4.9,1.1,4.9,3.4
			c0,1.8-0.9,3-2.8,3.7V49c0.7,0.2,1.4,0.8,1.9,1.7C220.8,51.6,221.6,53.3,222.5,55.8z M218.5,45.9c0-1.4-0.9-2.1-2.8-2.1
			c-0.7,0-1.3,0-1.8,0.2c0.1,1.1,0.1,2.6,0.1,4.3c0.4,0,0.7,0,1,0C217.3,48.3,218.5,47.5,218.5,45.9z"/>
		<path class="st4" d="M237.9,48.5c0,2.2-0.7,4-2,5.5c-1.3,1.4-3,2.2-5,2.2c-1.9,0-3.5-0.7-4.7-2c-1.3-1.3-1.9-3-1.9-5.1
			c0-2.2,0.7-4,2-5.5c1.3-1.4,3-2.2,5-2.2c1.9,0,3.5,0.7,4.7,2C237.2,44.8,237.9,46.5,237.9,48.5z M234.9,48.9
			c0-1.5-0.4-2.7-1.1-3.6c-0.8-0.9-1.7-1.4-2.8-1.4c-1,0-1.9,0.5-2.7,1.4c-0.7,0.9-1.1,2.1-1.1,3.6c0,1.5,0.4,2.7,1.2,3.6
			c0.8,0.9,1.7,1.4,2.8,1.4c1,0,1.9-0.5,2.7-1.4C234.6,51.5,234.9,50.3,234.9,48.9z"/>
		<path class="st4" d="M244,55.8h-3c0.1-2.2,0.1-4.7,0.1-7.3c0-2.6,0-4.8-0.1-6.7h3c-0.1,1.8-0.1,4-0.1,6.7
			C243.8,51.2,243.9,53.6,244,55.8z"/>
		<path class="st4" d="M259.5,48.3c0,2-0.7,3.8-2,5.3c-1.3,1.5-3.1,2.3-5.5,2.3c-1.1,0-2.5,0-4.4-0.1c0.1-2.2,0.1-4.6,0.1-7.3
			c0-2.6,0-4.8-0.1-6.7h1.9c0.3,0,0.8,0,1.4,0c0.6,0,1,0,1.2,0c2.6,0,4.5,0.6,5.6,1.9C258.9,45,259.5,46.5,259.5,48.3z M256.6,48.8
			c0-1.4-0.4-2.5-1.2-3.5c-0.8-0.9-2-1.4-3.7-1.4c-0.3,0-0.7,0-1.3,0.1c0.1,1.4,0.1,2.9,0.1,4.5c0,1.7,0,3.4,0.1,5.1
			c0.5,0.1,0.9,0.1,1.4,0.1c1.5,0,2.7-0.5,3.4-1.4C256.2,51.3,256.6,50.2,256.6,48.8z"/>
		<path class="st4" d="M280.2,55.8h-3.4c0-0.5-0.3-1.8-1-4h-5c-0.7,2.2-1,3.5-1,4h-3.2c0-0.3,0.8-2.6,2.5-6.9
			c1.7-4.3,2.5-6.7,2.5-7.1h4.1c0,0.4,0.8,2.7,2.3,7C279.4,53.1,280.2,55.4,280.2,55.8z M275.2,49.7c-1.2-3.7-1.8-5.7-1.8-6h-0.2
			c0,0.3-0.6,2.3-1.9,6H275.2z"/>
		<path class="st4" d="M292.7,45.5c0,1.7-0.6,3-1.9,3.8c-1.3,0.8-2.8,1.2-4.7,1.2c-0.3,0-0.6,0-0.7,0c0,1.3,0,3.1,0.1,5.3h-3
			c0.1-2.1,0.1-4.5,0.1-7.3c0-2.6,0-4.8-0.1-6.7h1.9c0.3,0,0.8,0,1.5,0c0.8,0,1.4,0,2,0c1.4,0,2.5,0.3,3.4,0.9
			C292.2,43.3,292.7,44.2,292.7,45.5z M289.9,46.1c0-1.5-1-2.3-3.1-2.3c-0.5,0-1,0.1-1.6,0.2c0.1,1.4,0.1,2.9,0.1,4.6
			c0.2,0,0.4,0,0.6,0C288.6,48.5,289.9,47.7,289.9,46.1z"/>
		<path class="st4" d="M305.6,45.5c0,1.7-0.6,3-1.9,3.8c-1.3,0.8-2.8,1.2-4.7,1.2c-0.3,0-0.6,0-0.7,0c0,1.3,0,3.1,0.1,5.3h-3
			c0.1-2.1,0.1-4.5,0.1-7.3c0-2.6,0-4.8-0.1-6.7h1.9c0.3,0,0.8,0,1.5,0c0.8,0,1.4,0,2,0c1.4,0,2.5,0.3,3.4,0.9
			C305.1,43.3,305.6,44.2,305.6,45.5z M302.8,46.1c0-1.5-1-2.3-3.1-2.3c-0.5,0-1,0.1-1.6,0.2c0.1,1.4,0.1,2.9,0.1,4.6
			c0.2,0,0.4,0,0.6,0C301.5,48.5,302.8,47.7,302.8,46.1z"/>
		<path class="st4" d="M326.7,48.5c0,2.2-0.7,4-2,5.5c-1.3,1.4-3,2.2-5,2.2c-1.9,0-3.5-0.7-4.7-2c-1.3-1.3-1.9-3-1.9-5.1
			c0-2.2,0.7-4,2-5.5c1.3-1.4,3-2.2,5-2.2c1.9,0,3.5,0.7,4.7,2C326,44.8,326.7,46.5,326.7,48.5z M323.7,48.9c0-1.5-0.4-2.7-1.1-3.6
			c-0.8-0.9-1.7-1.4-2.8-1.4c-1,0-1.9,0.5-2.7,1.4c-0.7,0.9-1.1,2.1-1.1,3.6c0,1.5,0.4,2.7,1.2,3.6c0.8,0.9,1.7,1.4,2.8,1.4
			c1,0,1.9-0.5,2.7-1.4C323.3,51.5,323.7,50.3,323.7,48.9z"/>
		<path class="st4" d="M341.2,55.8h-2.7c0-0.3-1-1.8-3-4.7c-2.1-3-3.2-5-3.5-6.1h-0.2c0.2,1.6,0.3,3,0.3,4.3c0,1.8,0,3.9,0.2,6.5
			h-2.6c0.1-2.2,0.2-4.7,0.2-7.3c0-2.6-0.1-4.8-0.2-6.7h3.2c0,0.4,0.9,1.9,2.7,4.5c1.9,2.8,3,4.7,3.2,5.7h0.2
			c-0.2-1.6-0.3-3-0.3-4.3c0-1.9,0-3.9-0.2-6h2.7c-0.1,1.8-0.2,4-0.2,6.7C341.1,51.2,341.1,53.6,341.2,55.8z"/>
	</g>
</g>
</svg>
