<?xml version="1.0" encoding="utf-8"?>
<!-- Generator: Adobe Illustrator 23.0.1, SVG Export Plug-In . SVG Version: 6.00 Build 0)  -->
<svg version="1.1" id="Layer_1" xmlns="http://www.w3.org/2000/svg" xmlns:xlink="http://www.w3.org/1999/xlink" x="0px" y="0px"
	 viewBox="0 0 343.1 297.2" style="enable-background:new 0 0 343.1 297.2;" xml:space="preserve">
<style type="text/css">
	.st0{fill:none;}
	.st1{fill:url(#SVGID_1_);}
	.st2{fill:url(#SVGID_2_);}
	.st3{fill:#ED2472;}
	.st4{fill:url(#SVGID_3_);}
	.st5{fill:#F57E20;}
	.st6{fill:#FCB11A;}
	.st7{fill:#ED1E24;}
</style>
<g>
	<polygon class="st0" points="268.8,48 268.8,48.1 268.8,48.1 	"/>
	<linearGradient id="SVGID_1_" gradientUnits="userSpaceOnUse" x1="298.8484" y1="66.3115" x2="281.8283" y2="119.6205">
		<stop  offset="0" style="stop-color:#EE3324"/>
		<stop  offset="1" style="stop-color:#F47A20"/>
	</linearGradient>
	<polygon class="st1" points="270,118 329.3,83.2 268.8,48.1 268.8,117.3 	"/>
	<linearGradient id="SVGID_2_" gradientUnits="userSpaceOnUse" x1="270.0345" y1="118.158" x2="329.8805" y2="118.158">
		<stop  offset="0" style="stop-color:#271551"/>
		<stop  offset="1" style="stop-color:#A8216F"/>
	</linearGradient>
	<polygon class="st2" points="329.6,153.1 329.9,152.9 329.9,83.6 329.3,83.2 270,118 	"/>
	<polygon class="st3" points="268.8,118.7 268.8,187.3 209.8,153.4 	"/>
	<linearGradient id="SVGID_3_" gradientUnits="userSpaceOnUse" x1="265.4549" y1="156.8605" x2="302.5923" y2="133.8097">
		<stop  offset="0" style="stop-color:#AA1E25"/>
		<stop  offset="1" style="stop-color:#ED1941"/>
	</linearGradient>
	<polygon class="st4" points="329.6,153.1 270,118 268.8,118.7 268.8,187.3 269.3,187.5 	"/>
	<polygon class="st5" points="268.8,48.1 268.8,117.3 209,82.1 268.8,48.1 	"/>
	<polygon class="st6" points="268.8,48.1 209,13.1 209,82.1 209,82.1 	"/>
</g>
<g>
	<path class="st7" d="M139,221.2c30.5,33.6,71,44,71,44v-81.5h5.3l4.4-11.1h-91.8c0,0-10.5-3.6-10.5-13c0-21.6,52.6-28.5,52.6-28.5
		c16.7-1.7,19.1,5.4,19.1,10.1s-4.4,7.4-4.4,7.4l14.5,10.7c14.5-9.2,3-41.6-30.7-37.8c-53.1,3.6-68.1,25.2-68.1,34.6
		s7.5,14.7,7.5,14.7v1.7H13.8l-3.9,11.2h67.7c0,0,0,3.3,0,5.7c-43.5,8.7-56.4,32.3-56.4,32.3c29.7,31.2,70.4,43.4,70.4,43.4v-81.8
		h21.8v74.4l13.4,7.4v-81.8h69.4c0,0,0,3.4,0,6.1C149.4,198.3,139,221.2,139,221.2z M76.6,247.8c0,0-25.2-13.2-33.2-24.6
		c3-3.7,10.5-12.1,33.2-16.2V247.8z M193.7,247.8c0,0-25.2-13.2-33.2-24.6c3-3.7,10.5-12.1,33.2-16.2V247.8z"/>
	
		<ellipse transform="matrix(0.2372 -0.9715 0.9715 0.2372 -227.2595 248.852)" class="st7" cx="44.8" cy="269.1" rx="12.8" ry="8.7"/>
</g>
</svg>
