<?xml version="1.0" encoding="utf-8"?>
<!-- Generator: Adobe Illustrator 23.0.1, SVG Export Plug-In . SVG Version: 6.00 Build 0)  -->
<svg version="1.1" id="Layer_1" xmlns="http://www.w3.org/2000/svg" xmlns:xlink="http://www.w3.org/1999/xlink" x="0px" y="0px"
	 viewBox="0 0 30.5 27.9" style="enable-background:new 0 0 30.5 27.9;" xml:space="preserve">
<style type="text/css">
	.st0{fill:#FFFFFF;}
	.st1{fill:#ED3E80;}
	.st2{fill:#FCB831;}
	.st3{fill:#F69320;}
	.st4{fill:#842E62;}
	.st5{fill:#F16623;}
	.st6{fill:#B7274D;}
</style>
<g>
	<polygon class="st0" points="18.9,1.3 18.9,7.9 23.8,10.8 18.6,13.8 24.3,17.1 29.8,13.9 29.8,7.6 	"/>
	<polygon class="st1" points="19.2,13.8 24.3,16.8 24.3,10.8 	"/>
	<polygon class="st2" points="19.2,1.8 19.2,7.8 24.3,4.8 	"/>
	<polygon class="st3" points="24.3,4.8 24.3,4.8 19.2,7.8 24.3,10.8 	"/>
	<polygon class="st4" points="29.5,13.8 29.5,7.8 24.3,10.8 	"/>
	<polygon class="st5" points="24.3,10.8 24.3,10.8 29.5,7.8 24.3,4.8 	"/>
	<polygon class="st6" points="29.5,13.8 29.5,13.8 24.3,10.8 24.3,16.8 	"/>
	<path class="st0" d="M4,24.2c-0.2,0-0.5,0.2-0.7,0.5c-0.2,0.3-0.3,0.6-0.3,0.9c0,0.3,0.1,0.5,0.2,0.6c0.2,0.2,0.4,0.2,0.6,0.2
		c0.2,0,0.5-0.2,0.6-0.5c0.2-0.3,0.2-0.5,0.2-0.8c0-0.2-0.1-0.5-0.2-0.6C4.4,24.3,4.2,24.2,4,24.2 M19.7,16.9L19.7,16.9h-7.1h-0.3
		h-0.9c-0.3-0.2-0.8-0.6-0.8-1.1c0-0.8,0.9-1.3,1.5-1.6c0.8-0.4,1.7-0.7,2.6-0.8c0.2,0,0.3,0,0.5,0c0.2,0,0.3,0,0.5,0
		c0.3,0,0.6,0.1,0.7,0.4c0.2,0.3,0.1,0.7-0.1,0.9c0,0,0,0-0.1,0.1c-0.1,0.1-0.1,0.2,0,0.4l0.7,0.6c0.2,0.2,0.3,0,0.4,0
		c0.3-0.2,0.5-0.7,0.5-0.9c0.1-0.7-0.2-1.4-0.9-1.8c-1.1-0.6-2.7-0.4-3.9-0.2C11.8,13,9,13.8,9,15.7c0,0.5,0.2,0.9,0.6,1.2l0.1,0.1
		h-1H8.5H2.4H1.9c-0.1,0-0.2,0.1-0.4,0.2c-0.3,0.3-0.4,0.7-0.4,0.9h4.1h1.3v0.4c-1.6,0.3-3,0.9-4.2,1.9c-0.5,0.4-0.7,0.7-0.7,0.9
		c0,0.3,0.5,0.8,1.5,1.5c0.7,0.5,1.3,0.9,1.9,1.2C6.3,24.6,7.2,25,7.9,25v-7.1h0.3h0.1h1.9V24c0,0.1,0.1,0.3,0.2,0.4
		c0.3,0.3,0.9,0.5,1.1,0.5v-7.1h0.5h0.3h5.4v0.4c-1.6,0.3-3,0.9-4.2,1.9c-0.5,0.4-0.7,0.7-0.7,0.9c0,0.1,0.1,0.3,0.4,0.6
		c0.6,0.6,1.3,1.2,2.2,1.7c1.6,1,2.9,1.5,3.6,1.5v-7.1h0h0c0.1,0,0.2-0.1,0.4-0.2C19.5,17.5,19.7,17,19.7,16.9 M6.4,23.4
		c-0.6-0.3-1.3-0.7-2.1-1.4c-0.3-0.3-0.5-0.4-0.6-0.5c0.3-0.6,1.2-1,2.7-1.4V23.4z M17.3,23.4c-0.6-0.3-1.3-0.7-2.1-1.4
		c-0.3-0.3-0.5-0.4-0.6-0.5c0.1-0.1,0.1-0.1,0.1-0.1c0.6-0.6,1.4-1,2.5-1.2V23.4z"/>
</g>
</svg>
