<?xml version="1.0" encoding="utf-8"?>
<!-- Generator: Adobe Illustrator 23.0.1, SVG Export Plug-In . SVG Version: 6.00 Build 0)  -->
<svg version="1.1" id="Layer_1" xmlns="http://www.w3.org/2000/svg" xmlns:xlink="http://www.w3.org/1999/xlink" x="0px" y="0px"
	 viewBox="0 0 70 60" style="enable-background:new 0 0 70 60;" xml:space="preserve">
<style type="text/css">
	.st0{fill:#ED1B24;}
	.st1{fill:#C51B24;}
	.st2{fill:#FFFFFF;}
	.st3{fill:none;}
	.st4{fill:url(#SVGID_1_);}
	.st5{fill:url(#SVGID_2_);}
	.st6{fill:#EC2472;}
	.st7{fill:url(#SVGID_3_);}
	.st8{fill:#F47E20;}
	.st9{fill:#FBB01A;}
	.st10{fill:#020202;}
</style>
<g>
	<g>
		<path class="st0" d="M33,33.1c0,0-4-6.8-0.1-12.7c0,0-6.8-7.6-8.6-9.3s-6.6-6.6-11.8-6.6s-8.8,8.8-8.8,19.1s0.6,21.8,6.9,22.6
			S22.9,41.9,33,33.1z"/>
		<path class="st1" d="M11.8,46.6c-0.4,0-0.9,0-1.3-0.1c-2.9-0.4-4.9-3-6-7.9c-0.9-4.3-1.1-10-1.1-14.9c0-11,3.9-19.3,9-19.3
			c4.8,0,9.2,4.1,11.3,6c0.2,0.2,0.5,0.4,0.7,0.6c1.8,1.6,8.3,9,8.6,9.3l0.1,0.1L33,20.5c-3.7,5.7,0.1,12.4,0.1,12.5l0.1,0.2
			l-0.1,0.1C23.3,41.8,17.6,46.6,11.8,46.6z M12.5,4.8c-2.4,0-4.6,2-6.2,5.6c-1.6,3.5-2.4,8.3-2.4,13.4c0,4.9,0.1,10.5,1.1,14.8
			c1,4.7,2.9,7.2,5.6,7.6c6.1,0.8,11.8-3.9,22.2-13.1c-0.6-1.1-3.5-7.2-0.1-12.6c-0.9-1-6.8-7.6-8.5-9.1c-0.2-0.2-0.4-0.4-0.7-0.6
			C21.4,8.7,17.1,4.8,12.5,4.8z"/>
	</g>
	<path class="st2" d="M15.9,30.6c2.2,2.5,5.2,3.2,5.2,3.2v-6h0.4l0.3-0.8H15c0,0-0.8-0.3-0.8-0.9c0-1.6,3.9-2.1,3.9-2.1
		c1.2-0.1,1.4,0.4,1.4,0.7c0,0.3-0.3,0.5-0.3,0.5l1.1,0.8c1.1-0.7,0.2-3-2.3-2.8c-3.9,0.3-5,1.8-5,2.5s0.5,1.1,0.5,1.1v0.1H6.7
		l-0.3,0.8h5c0,0,0,0.2,0,0.4c-3.2,0.6-4.1,2.4-4.1,2.4c2.2,2.3,5.2,3.2,5.2,3.2v-6H14v5.5l1,0.5v-6H20c0,0,0,0.3,0,0.4
		C16.6,29,15.9,30.6,15.9,30.6z M11.3,32.6c0,0-1.8-1-2.4-1.8c0.2-0.3,0.8-0.9,2.4-1.2V32.6z M19.9,32.6c0,0-1.8-1-2.4-1.8
		c0.2-0.3,0.8-0.9,2.4-1.2V32.6z"/>
	<ellipse transform="matrix(0.2372 -0.9715 0.9715 0.2372 -26.3417 34.7524)" class="st2" cx="9" cy="34.2" rx="0.9" ry="0.6"/>
	<g>
		<polygon class="st2" points="30.3,19.2 30.3,24.5 30.3,24.5 25.7,27.1 25.7,27.1 21.2,24.5 25.7,21.9 25.8,21.8 25.7,21.8 
			21.2,19.1 21.2,13.9 25.7,16.5 25.7,16.5 30.3,19.2 		"/>
		<path class="st2" d="M25.7,27.3c0,0-0.1,0-0.1,0l0,0l-4.5-2.6c-0.1,0-0.1-0.1-0.1-0.2c0-0.1,0-0.1,0.1-0.2l4.2-2.5l-4.3-2.5
			c-0.1,0-0.1-0.1-0.1-0.2v-5.2c0-0.1,0-0.1,0.1-0.2c0.1,0,0.1,0,0.2,0l4.5,2.6c0,0,0,0,0,0l4.6,2.7c0.1,0,0.1,0.1,0.1,0.2v5.3
			c0,0.1,0,0.1-0.1,0.2l0,0l-4.6,2.6C25.8,27.3,25.8,27.3,25.7,27.3z M21.7,24.5l4.1,2.3l4.4-2.5v-5l-4.5-2.6c0,0,0,0,0,0l-4.2-2.5
			V19l4.5,2.7c0.1,0,0.1,0.1,0.1,0.2c0,0.1,0,0.1-0.1,0.2l-0.1,0.1L21.7,24.5z"/>
	</g>
	<g>
		<polygon class="st3" points="25.7,16.5 25.7,16.5 25.7,16.5 		"/>
		<linearGradient id="SVGID_1_" gradientUnits="userSpaceOnUse" x1="27.9783" y1="17.9194" x2="26.6889" y2="21.958">
			<stop  offset="0" style="stop-color:#ED3324"/>
			<stop  offset="1" style="stop-color:#F37A20"/>
		</linearGradient>
		<polygon class="st4" points="25.8,21.8 30.3,19.2 25.7,16.5 25.7,21.8 		"/>
		<linearGradient id="SVGID_2_" gradientUnits="userSpaceOnUse" x1="25.7954" y1="21.8472" x2="30.3293" y2="21.8472">
			<stop  offset="0" style="stop-color:#271551"/>
			<stop  offset="1" style="stop-color:#A7216F"/>
		</linearGradient>
		<polygon class="st5" points="30.3,24.5 30.3,24.5 30.3,19.2 30.3,19.2 25.8,21.8 		"/>
		<polygon class="st6" points="25.7,21.9 25.7,27.1 21.2,24.5 		"/>
		<linearGradient id="SVGID_3_" gradientUnits="userSpaceOnUse" x1="25.4484" y1="24.7793" x2="28.262" y2="23.033">
			<stop  offset="0" style="stop-color:#A91E25"/>
			<stop  offset="1" style="stop-color:#EC1941"/>
		</linearGradient>
		<polygon class="st7" points="30.3,24.5 25.8,21.8 25.7,21.9 25.7,27.1 25.7,27.1 		"/>
		<polygon class="st8" points="25.7,16.5 25.7,21.8 21.2,19.1 25.7,16.5 		"/>
		<polygon class="st9" points="25.7,16.5 21.2,13.9 21.2,19.1 21.2,19.1 		"/>
	</g>
	<g>
		<path class="st0" d="M52.6,26.4c0-5.5-4.4-9.9-9.9-9.9c-5.5,0-9.9,4.4-9.9,9.9c0,5.5,4.4,9.9,9.9,9.9c4.2,0,7.8-2.6,9.2-6.3h-4.1
			c0,0-1.2,3-5.1,3c-5.2,0-5.5-5.6-5.5-5.6h15.3C52.6,27.1,52.6,26.8,52.6,26.4z M37.4,24.8c0,0,0-5,5.1-5s5.4,5,5.4,5H37.4z"/>
		<path class="st1" d="M42.7,36.5c-5.5,0-10-4.5-10-10c0-5.5,4.5-10,10-10c5.5,0,10,4.5,10,10c0,0.3,0,0.7-0.1,1l0,0.1H37.4
			c0.1,0.9,0.7,5.3,5.3,5.3c3.8,0,5-2.9,5-2.9l0-0.1l4.4,0L52,30.1C50.5,34,46.9,36.5,42.7,36.5z M42.7,16.7c-5.4,0-9.7,4.4-9.7,9.7
			c0,5.4,4.4,9.7,9.7,9.7c4,0,7.5-2.4,9-6h-3.8c-0.2,0.5-1.6,3-5.2,3c-5.3,0-5.6-5.6-5.6-5.7l0-0.1h15.3c0-0.3,0-0.6,0-0.9
			C52.4,21.1,48.1,16.7,42.7,16.7z M48,24.9H37.2l0-0.1c0-0.1,0-2.2,1.5-3.7c0.9-0.9,2.2-1.4,3.8-1.4c5.2,0,5.5,5.1,5.5,5.1L48,24.9
			z M37.5,24.6h10.2c-0.1-0.8-0.7-4.7-5.2-4.7c-1.5,0-2.7,0.4-3.6,1.3C37.7,22.4,37.5,24.1,37.5,24.6z"/>
	</g>
	<path class="st10" d="M66.2,38.3c-0.7-0.2-3.6-0.4-7.9-0.3c0-0.3-0.3-0.5-0.6-0.5c-0.3,0-0.5,0.2-0.6,0.5c-2.9,0-6.5,0.1-10.5,0.3
		c-0.1-0.2-0.3-0.3-0.6-0.3c-0.3,0-0.5,0.2-0.6,0.4c-0.2,0-0.4,0-0.6,0c-0.1,0-0.2,0-0.3,0c-1.7,0.1-3.4,0.1-4.9,0.2l-0.1-0.3
		c-0.2-0.4-0.6-0.5-0.9-0.4c-0.3,0.1-0.5,0.4-0.4,0.7c-0.7,0-1.4,0-2.1,0c-6.7,0-10-0.4-10-0.4c-0.3,0-0.6,0.2-0.6,0.5
		c0,0.3,0.2,0.6,0.5,0.6c0.2,0,3.2,0.4,9.2,0.4l0,0c-1.3,1.8-2.4,3.8-3.1,6c-0.6,2-0.8,4.2,0.2,6.1c0.8,1.6,2.4,2.8,4.2,3.3
		c2.6,0.8,5.4,0.4,7.9-0.4c1.2-0.5,2.5-1.1,3.1-2.3c0.2-0.3,0.4-0.7,0.4-1.1c-0.1-0.4-0.7-0.5-1.1-0.3c-0.3,0.2-0.3,0.7-0.5,1
		c-0.4,0.6-1,1-1.6,1.3c-0.7,0.3-1.5,0.6-2.3,0.7c-1.6,0.2-3.3,0.4-4.9,0.1c-1.7-0.3-3.3-1.4-4-3c-0.7-1.6-0.5-3.4-0.1-5
		c0.7-2.4,1.9-4.5,3.5-6.4c0.6,0,1.3,0,1.9,0l0.3,0.8c0,0,0,0.1,0.1,0.1c0.2,0.6,0.5,1.2,0.8,1.8c0.5,1.1,0.9,2.3,1.2,3.5
		c0.2,0.9,0.2,2-0.6,2.7c-0.4,0.2-0.9,0.4-1.4,0.3C38,49,37,48.6,36,48c-0.3-0.2-0.6-0.5-1-0.5c-0.4,0-0.5,0.4-0.6,0.7
		c0,0.4,0.3,0.6,0.6,0.8c0.8,0.5,1.7,0.9,2.6,1.1c0.8,0.2,1.7,0.3,2.6,0.1c0.8-0.1,1.5-0.7,1.9-1.3c0.6-1.2,0.5-2.6,0.2-3.9
		c0.9,0.2,1.7,0.9,2.3,1.7c0.7,1.1,0.8,2.5,0.9,3.8c0.1,0.1,0.2,0.2,0.3,0.3c0.3,0,0.5,0.1,0.8-0.1c0.2-0.2,0.2-0.4,0.2-0.6
		c0-2.8,0.1-5.7,0-8.5v0c0-0.1,0-0.2,0-0.3c0-0.1,0-0.1,0-0.2l0-0.3l0-1c1.9-0.1,3.8-0.1,5.7-0.2c-0.2,0.3-0.5,0.5-0.8,0.8
		c-1.4,1.3-2.7,2.7-3.6,4.4c-0.4,0.8-0.7,1.6-0.6,2.4c0.1,1.2,1.1,2.2,2.2,2.4c1.1,0.3,2.2,0.1,3.2-0.3c1.2-0.5,2.3-1.2,3-2.3
		c0.7-1,0.7-2.4,0.3-3.5C56,42.1,55.1,41,54.2,40c0-0.3,0.4-0.4,0.5-0.6c0.8-0.1,1.5,0,2.3,0c0,5.1,0,10.3,0,15.4
		c0,0.3,0.3,0.5,0.5,0.7c0.3,0,0.7-0.1,0.8-0.4c0.1-0.6,0-1.2,0-1.8c0-4.6-0.1-9.2-0.1-13.8c2,0,4.1,0,6.1,0c0.5,0,1,0,1.4,0
		c0.3,0.1,0.6-0.1,0.7-0.4C66.7,38.7,66.5,38.4,66.2,38.3z M45.5,45.5c-0.9-1.1-2.3-1.8-3.7-2.1c-0.4-1-0.9-2-1.3-3
		c0-0.1,0-0.2-0.1-0.3l-0.1-0.3c1.7,0,3.5-0.1,5.2-0.1l0,0.9C45.5,42.2,45.6,43.9,45.5,45.5z M55.2,44.6c0,1.5-1.1,2.8-2.4,3.2
		c-0.9,0.3-2,0.5-2.9,0.2c-0.5-0.1-0.9-0.5-0.9-1c-0.1-0.8,0.3-1.5,0.6-2.2c0.7-1.4,1.7-2.5,2.8-3.6c0.2-0.2,0.4-0.5,0.8-0.5
		C54.2,41.9,55.1,43.1,55.2,44.6z"/>
</g>
</svg>
